<svg width="850" height="221" viewBox="0 0 850 221" fill="none" xmlns="http://www.w3.org/2000/svg">
<path d="M301.404 83.1306V121.355C301.404 130.99 296.102 136.453 286.79 136.453C277.472 136.453 272.331 130.99 272.331 121.355V83.1306H254.503V124.73C254.503 141.271 264.462 152.193 282.936 152.193C291.769 152.193 298.352 149.782 303.009 145.448C305.259 149.782 309.597 152.193 315.055 152.193C319.873 152.193 322.925 151.552 325.816 150.589V136.453H322.123C320.196 136.453 319.071 135.49 319.071 133.563V83.1306H301.404Z" fill="#545454"/>
<path d="M341.393 81.042C337.378 81.042 334.487 81.6827 331.435 82.6462V96.7816H334.966C337.539 96.7816 339.305 97.7452 339.946 99.9952L358.097 150.105H381.706L404.029 83.1306H386.201L369.982 134.365L355.524 91.9639C353.758 84.4118 348.617 81.042 341.393 81.042Z" fill="#545454"/>
<path d="M432.613 49.7191H414.785V150.105H432.613V49.7191Z" fill="#545454"/>
<path d="M451.402 49.7191V150.105H469.23V111.881C469.23 102.24 474.371 96.7816 483.688 96.7816C493.001 96.7816 498.303 102.24 498.303 111.881V150.105H515.97V108.667C515.97 92.1254 506.011 81.042 487.543 81.042C479.834 81.042 473.73 82.9691 469.23 86.5004V49.7191H451.402Z" fill="#545454"/>
<path d="M581.816 83.1306V121.355C581.816 130.99 576.514 136.453 567.202 136.453C557.884 136.453 552.743 130.99 552.743 121.355V83.1306H534.915V124.73C534.915 141.271 544.874 152.193 563.348 152.193C572.181 152.193 578.764 149.782 583.42 145.448C585.67 149.782 590.009 152.193 595.467 152.193C600.285 152.193 603.337 151.552 606.228 150.589V136.453H602.535C600.608 136.453 599.483 135.49 599.483 133.563V83.1306H581.816Z" fill="#545454"/>
<path d="M621.805 49.7191V133.563C621.805 135.49 620.519 136.453 618.592 136.453H615.055V150.589C617.951 151.552 620.998 152.193 625.821 152.193C632.081 152.193 637.061 148.98 638.826 143.36C643.805 148.98 650.712 152.193 659.389 152.193C677.535 152.193 688.456 138.058 688.456 116.698C688.456 95.3337 677.535 81.042 659.389 81.042C651.196 81.042 644.451 83.9327 639.472 89.0733V49.7191H621.805ZM639.472 115.896C639.472 103.688 646.217 96.7816 655.212 96.7816C664.206 96.7816 670.628 104.011 670.628 116.698C670.628 129.386 664.206 136.453 655.212 136.453C646.217 136.453 639.472 129.709 639.472 117.5V115.896Z" fill="#545454"/>
<path d="M700.5 141.271C700.5 147.375 705.156 152.193 711.261 152.193C717.365 152.193 722.182 147.375 722.182 141.271C722.182 135.167 717.365 130.188 711.261 130.188C705.156 130.188 700.5 135.167 700.5 141.271Z" fill="#545454"/>
<path d="M736.955 58.5524C736.955 64.6566 741.773 69.3181 747.877 69.3181C753.981 69.3181 758.637 64.6566 758.637 58.5524C758.637 52.4535 753.981 47.792 747.877 47.792C741.773 47.792 736.955 52.4535 736.955 58.5524ZM756.71 94.6931C756.71 86.1826 750.929 81.042 743.059 81.042C738.241 81.042 735.028 81.6826 732.137 82.6462V96.7816H735.83C737.757 96.7816 739.044 97.9066 739.044 99.8337V150.105H756.71V94.6931Z" fill="#545454"/>
<path d="M806.016 96.7816C815.651 96.7816 822.558 104.167 822.558 116.698C822.558 129.224 815.651 136.453 806.016 136.453C796.381 136.453 789.474 129.224 789.474 116.698C789.474 104.167 796.381 96.7816 806.016 96.7816ZM806.016 81.042C786.099 81.042 771.808 95.3337 771.808 116.698C771.808 138.058 786.099 152.193 806.016 152.193C825.933 152.193 840.229 138.058 840.229 116.698C840.229 95.3337 825.933 81.042 806.016 81.042Z" fill="#545454"/>
<g clip-path="url(#clip0_2002_2)">
<path d="M0 0C72.93 0 145.86 0 221 0C221 72.93 221 145.86 221 221C148.07 221 75.14 221 0 221C0 148.07 0 75.14 0 0Z" fill="#EC0D0D"/>
<path d="M0 0C72.93 0 145.86 0 221 0C221 72.93 221 145.86 221 221C148.07 221 75.14 221 0 221C0 148.07 0 75.14 0 0ZM26.7042 12.8917C26.7042 54.2187 26.7042 95.5457 26.7042 138.125C27.3119 137.213 27.9197 136.302 28.5458 135.363C28.0151 137.574 27.4079 139.659 26.6466 141.808C24.4113 149.7 25.4791 157.387 28.5458 164.829C28.8049 165.467 29.064 166.105 29.3309 166.763C31.4807 171.834 34.0818 176.247 37.2938 180.714C37.7737 181.386 38.2536 182.058 38.7481 182.751C43.4599 189.225 48.6656 195.092 54.3292 200.742C55.1126 201.536 55.896 202.33 56.7032 203.148C59.4715 205.878 59.4715 205.878 62.6167 208.108C65.2821 207.857 67.441 207.114 69.9833 206.267C69.3756 206.874 68.7678 207.482 68.1417 208.108C70.1943 208.133 72.247 208.151 74.2997 208.166C76.0144 208.182 76.0144 208.182 77.7637 208.198C80.5383 208.122 82.9512 207.84 85.6375 207.188C85.6375 207.491 85.6375 207.795 85.6375 208.108C121.495 208.108 157.352 208.108 194.296 208.108C194.285 196.109 194.274 184.109 194.263 171.746C194.259 164.163 194.254 156.58 194.251 148.997C194.245 136.95 194.239 124.903 194.226 112.855C194.217 104.083 194.211 95.31 194.209 86.5374C194.208 81.8904 194.205 77.2434 194.198 72.5963C194.192 68.2255 194.19 63.8548 194.192 59.484C194.191 57.877 194.19 56.27 194.186 54.663C194.182 52.4744 194.183 50.2858 194.185 48.0972C194.181 47.1365 194.181 47.1365 194.177 46.1564C194.186 43.3969 194.336 41.3176 195.217 38.675C195.942 31.5623 193.347 25.8481 189.577 19.9706C181.623 12.536 173.194 12.2413 162.813 12.369C161.323 12.3703 159.834 12.3695 158.345 12.3669C154.327 12.3656 150.31 12.3926 146.293 12.4248C142.085 12.4537 137.877 12.4563 133.669 12.4618C125.711 12.4761 117.755 12.5138 109.797 12.5601C99.0372 12.6213 88.2768 12.646 77.5164 12.6729C60.5788 12.7161 43.6418 12.8079 26.7042 12.8917Z" fill="#EB0000"/>
<path d="M86.8461 119.996C94.7846 125.941 101.358 134.555 103.133 144.571C104.782 160.012 98.7898 172.245 89.3208 184.167C88.9251 184.666 88.5294 185.166 88.1217 185.681C74.5514 202.607 74.5514 202.607 66.3 208.108C60.8796 207.702 58.0826 204.327 54.3292 200.742C53.7392 200.199 53.1493 199.657 52.5415 199.098C46.922 193.751 42.3058 187.655 37.7542 181.404C37.0633 180.457 36.3725 179.51 35.6607 178.534C31.5841 172.699 28.6954 167.065 26.7042 160.225C26.5285 159.627 26.3528 159.028 26.1718 158.412C24.2151 148.991 26.3057 139.998 30.9954 131.755C43.9734 112.434 67.4119 107.175 86.8461 119.996Z" fill="#FDF8F8"/>
<path d="M182.67 14.7909C189.11 18.4808 192.781 23.0698 194.778 30.2256C196.387 37.572 194.034 43.2462 190.613 49.725C188.372 53.0023 185.873 55.9617 183.246 58.9333C182.602 59.7085 181.959 60.4836 181.296 61.2822C178.138 65.0185 176.015 67.4908 171.275 69.0625C161.207 61.0755 150.729 50.0862 148.923 36.8261C148.599 30.0715 150.806 24.5413 155.294 19.467C163.051 12.3921 172.984 10.3641 182.67 14.7909Z" fill="#FDF5F5"/>
<path d="M79.8823 134.327C85.0183 139.177 87.2096 144.48 87.7094 151.477C87.2076 158.501 84.9395 163.463 80.1125 168.512C73.6828 173.52 67.9162 174.705 59.8542 174.037C53.8618 172.698 49.192 169.765 45.5992 164.779C41.8143 158.312 41.2861 151.927 42.3583 144.571C44.6958 137.912 50.7545 132.585 56.919 129.435C66.2127 127.795 72.1982 129.087 79.8823 134.327Z" fill="#EC0E0E"/>
<path d="M26.7042 164.829C27.6158 164.829 28.5274 164.829 29.4667 164.829C29.6738 165.339 29.8809 165.849 30.0943 166.375C32.2977 171.588 34.9151 176.125 38.2146 180.714C38.6932 181.385 39.1718 182.056 39.6648 182.747C46.0167 191.48 53.2276 199.531 61.6958 206.267C61.24 207.178 61.24 207.178 60.775 208.108C49.5316 208.108 38.2882 208.108 26.7042 208.108C26.7042 193.826 26.7042 179.544 26.7042 164.829Z" fill="#EC0D0D"/>
<path d="M175.879 22.1C180.315 24.276 182.911 26.8726 185.087 31.3083C185.847 35.6238 185.526 38.7014 183.591 42.6461C180.281 46.3915 177.704 48.5761 172.656 49.207C167.331 48.5413 163.678 46.4509 160.225 42.3583C158.636 37.5912 158.5 32.4427 160.34 27.7401C164.861 22.6159 169.212 20.927 175.879 22.1Z" fill="#EC0E0E"/>
<path d="M103.133 195.217C103.437 197.344 103.741 199.471 104.054 201.663C100.717 202.587 97.3788 203.507 94.0401 204.425C93.0893 204.689 92.1385 204.952 91.1589 205.224C90.2508 205.473 89.3428 205.722 88.4072 205.979C87.1486 206.326 87.1486 206.326 85.8646 206.68C83.7958 207.188 83.7958 207.188 81.9542 207.188C83.4604 203.627 85.3078 200.343 88.4 197.979C93.2565 196.192 97.9609 195.217 103.133 195.217Z" fill="#FBEAEA"/>
<path d="M121.55 190.612C121.854 192.436 122.158 194.259 122.471 196.137C117.451 198.199 113.141 199.338 107.737 199.821C107.434 197.998 107.13 196.174 106.817 194.296C108.405 193.673 109.998 193.061 111.593 192.454C112.48 192.112 113.367 191.77 114.28 191.418C116.874 190.634 118.863 190.455 121.55 190.612Z" fill="#FCEEEE"/>
<path d="M139.046 185.087C139.35 186.911 139.654 188.734 139.967 190.612C130.414 194.841 130.414 194.841 125.233 194.296C124.929 192.473 124.626 190.649 124.312 188.771C126.075 188.15 127.841 187.538 129.607 186.929C130.59 186.587 131.573 186.245 132.586 185.893C135.363 185.087 135.363 185.087 139.046 185.087Z" fill="#FCEDED"/>
<path d="M156.542 178.642C156.846 180.161 157.149 181.68 157.462 183.246C156.027 184.001 154.588 184.747 153.146 185.49C151.944 186.115 151.944 186.115 150.718 186.753C148.337 187.813 146.216 188.369 143.65 188.771C143.042 186.948 142.434 185.124 141.808 183.246C143.744 182.473 145.682 181.707 147.621 180.944C148.7 180.516 149.779 180.089 150.891 179.649C153.779 178.642 153.779 178.642 156.542 178.642Z" fill="#FCEDED"/>
<path d="M171.275 169.433C172.491 170.649 173.706 171.864 174.958 173.117C171.558 176.942 167.93 179.812 162.988 181.404C162.076 181.1 161.164 180.796 160.225 180.483C159.921 178.964 159.617 177.445 159.304 175.879C163.255 173.752 167.205 171.625 171.275 169.433Z" fill="#FBEBEB"/>
<path d="M180.483 155.621C181.699 155.621 182.914 155.621 184.167 155.621C185.562 160.272 184.678 162.728 182.512 166.825C181.366 168.571 180.233 169.923 178.642 171.275C178.034 171.275 177.426 171.275 176.8 171.275C175.649 169.318 175.649 169.318 174.958 166.671C176.57 163.966 176.57 163.966 178.642 161.146C179.786 158.176 179.786 158.176 180.483 155.621Z" fill="#FCECEC"/>
<path d="M181.404 12.8917C185.658 12.8917 189.913 12.8917 194.296 12.8917C194.296 16.842 194.296 20.7924 194.296 24.8625C190.495 22.9621 189.473 21.6536 186.929 18.4167C185.405 17.176 183.872 15.9458 182.325 14.7333C182.021 14.1256 181.717 13.5178 181.404 12.8917Z" fill="#EC0D0D"/>
<path d="M171.275 139.967C175.128 141.2 176.999 142.694 179.447 145.895C180.015 146.615 180.582 147.336 181.167 148.078C181.549 148.744 181.931 149.41 182.325 150.096C182.021 151.007 181.717 151.919 181.404 152.858C179.505 153.491 179.505 153.491 177.721 153.779C176.681 152.478 175.646 151.173 174.613 149.866C174.036 149.139 173.459 148.413 172.865 147.664C171.469 145.757 170.407 143.953 169.433 141.808C170.041 141.201 170.649 140.593 171.275 139.967Z" fill="#FCEDED"/>
<path d="M155.621 128.917C159.565 129.421 161.93 130.781 165.117 133.118C165.93 133.708 166.743 134.298 167.581 134.906C168.192 135.36 168.804 135.815 169.433 136.283C168.826 137.499 168.218 138.714 167.592 139.967C163.877 139.967 162.532 138.497 159.592 136.283C158.677 135.6 157.762 134.916 156.819 134.211C156.119 133.68 155.42 133.148 154.7 132.6C155.004 131.384 155.308 130.169 155.621 128.917Z" fill="#FBEBEB"/>
<path d="M139.967 118.788C143.373 120.052 146.368 121.609 149.463 123.507C150.276 124.003 151.089 124.499 151.927 125.01C152.844 125.577 152.844 125.577 153.779 126.154C153.171 127.37 152.564 128.585 151.938 129.838C146.594 128.467 142.567 125.61 138.125 122.471C138.733 121.255 139.34 120.04 139.967 118.788Z" fill="#FBE9E9"/>
<path d="M124.312 108.658C125.944 109.539 127.574 110.422 129.204 111.306C130.112 111.797 131.021 112.289 131.956 112.795C134.442 114.183 134.442 114.183 137.204 116.025C136.9 117.241 136.596 118.456 136.283 119.708C132.339 119.204 129.974 117.844 126.787 115.507C125.974 114.917 125.161 114.327 124.323 113.719C123.406 113.037 123.406 113.037 122.471 112.342C123.079 111.126 123.686 109.911 124.312 108.658Z" fill="#FBE6E6"/>
<path d="M113.262 94.8458C115.162 95.2487 115.162 95.2487 116.946 95.7667C117.022 96.5833 117.098 97.4 117.176 98.2414C117.953 101.672 119.207 103.326 121.55 105.896C120.942 107.111 120.334 108.327 119.708 109.579C113.344 104.598 113.344 104.598 112.342 101.292C112.169 98.3565 112.169 98.3565 112.342 95.7667C112.646 95.4628 112.949 95.1589 113.262 94.8458Z" fill="#FBE9E9"/>
<path d="M127.075 81.9542C127.987 82.258 128.898 82.5619 129.837 82.875C129.837 83.7866 129.837 84.6982 129.837 85.6375C128.089 87.0511 128.089 87.0511 125.809 88.4575C123.518 89.8865 121.621 91.0913 119.708 93.0042C117.752 92.6588 117.752 92.6588 116.025 92.0833C117.401 88.5777 119.357 87.0209 122.413 84.8893C123.219 84.3136 124.025 83.7379 124.856 83.1448C125.588 82.7519 126.32 82.359 127.075 81.9542Z" fill="#FBE6E6"/>
<path d="M146.413 74.5875C146.261 76.2709 146.261 76.2709 145.492 78.2708C143.283 79.6377 143.283 79.6377 140.542 80.8031C139.193 81.3943 139.193 81.3943 137.816 81.9973C135.363 82.875 135.363 82.875 132.6 82.875C132.296 81.9634 131.992 81.0517 131.679 80.1125C133.155 79.362 134.633 78.6144 136.111 77.868C136.933 77.4513 137.756 77.0347 138.603 76.6054C141.375 75.2739 143.317 74.5875 146.413 74.5875Z" fill="#FBE5E5"/>
<path d="M164.829 69.9833C164.829 70.5911 164.829 71.1988 164.829 71.825C163.086 72.4476 161.34 73.0594 159.592 73.6667C158.134 74.1795 158.134 74.1795 156.646 74.7026C153.978 75.4523 151.922 75.6714 149.175 75.5083C149.175 74.5967 149.175 73.6851 149.175 72.7458C150.916 72.099 152.663 71.4692 154.412 70.8466C155.384 70.4941 156.357 70.1415 157.358 69.7783C160.311 69.041 161.946 69.1327 164.829 69.9833Z" fill="#FADCDC"/>
<path d="M152.858 177.721C154.985 177.721 157.113 177.721 159.304 177.721C160.225 179.562 160.225 179.562 159.362 182.44C159.039 183.314 158.716 184.187 158.383 185.087C157.168 184.784 155.952 184.48 154.7 184.167C155.308 183.863 155.916 183.559 156.542 183.246C156.542 181.726 156.542 180.207 156.542 178.642C155.326 178.946 154.111 179.249 152.858 179.562C152.858 178.955 152.858 178.347 152.858 177.721Z" fill="#ED2B2B"/>
<path d="M160.225 69.0625C161.744 69.3664 163.264 69.6703 164.829 69.9833C164.829 70.5911 164.829 71.1988 164.829 71.825C162.702 72.4328 160.575 73.0405 158.383 73.6667C158.991 72.1473 159.599 70.6279 160.225 69.0625Z" fill="#F8CFCF"/>
<path d="M173.117 166.671C173.724 166.671 174.332 166.671 174.958 166.671C175.566 167.886 176.174 169.102 176.8 170.354C175.888 171.266 174.977 172.177 174.037 173.117C172.822 171.597 171.606 170.078 170.354 168.513C171.266 168.513 172.177 168.513 173.117 168.513C173.117 167.905 173.117 167.297 173.117 166.671Z" fill="#EC1818"/>
<path d="M94.8458 204.425C92.9971 206.274 91.7438 207.182 89.3208 208.108C87.249 207.763 87.249 207.763 85.6375 207.188C86.5583 205.346 86.5583 205.346 88.1698 204.77C90.43 204.394 92.5584 204.361 94.8458 204.425Z" fill="#EC1B1B"/>
<path d="M126.154 81.0333C128.308 81.2979 130.458 81.6037 132.6 81.9542C131.992 83.4735 131.385 84.9929 130.758 86.5583C130.151 86.2545 129.543 85.9506 128.917 85.6375C128.917 84.7259 128.917 83.8143 128.917 82.875C127.701 82.5711 126.486 82.2673 125.233 81.9542C125.537 81.6503 125.841 81.3464 126.154 81.0333Z" fill="#EB0404"/>
</g>
<defs>
<clipPath id="clip0_2002_2">
<rect width="221" height="221" rx="30" fill="white"/>
</clipPath>
</defs>
</svg>
